<?xml version="1.0" encoding="UTF-8"?>
<svg width="320px" height="66px" viewBox="0 0 320 66" version="1.1" xmlns="http://www.w3.org/2000/svg" xmlns:xlink="http://www.w3.org/1999/xlink">
    <title>fivesec-blue</title>
    <g id="fivesec-blue" stroke="none" stroke-width="1" fill="none" fill-rule="evenodd">
        <path d="M52.045746,37.5108185 C49.6697481,37.3057505 48.9783144,36.6701469 48.5434842,34.3048854 C48.4940961,34.0364717 48.4651074,33.7465849 48.3394898,33.5136019 C47.1638378,31.3458929 45.343993,27.9499229 42.2561619,25.4891062 C38.9868832,22.8833461 35.3751086,22.0716631 31.495994,21.7592296 C30.2365969,21.6572324 28.8837919,21.9481928 27.6587519,22.3314876 C25.4169607,23.0336578 23.105382,23.7336807 21.2984211,25.3033639 C18.213811,27.9789116 15.8249291,31.100026 15.1109487,35.3227101 C14.9842574,36.0785631 14.662161,37.6418044 13.2996931,37.4667987 C11.0589756,37.1801329 9.42057848,38.4470455 7.58462885,39.2608758 C5.54039019,40.1670404 4.16825941,41.7249135 2.85732695,43.5039594 C1.48841713,45.3613821 0.995609598,47.383074 0.417983338,49.5421937 C-0.515022647,53.033719 0.167821779,55.5331873 1.92539462,59.073027 C2.80471786,60.845631 4.30890818,62.0502717 5.68855454,63.342952 C6.5367418,64.1363829 7.63401697,64.7129355 8.70337711,65.2068167 C9.68040294,65.6577517 10.7604996,66.1000974 11.8094603,66.1376753 C15.08196,66.2557774 18.3619753,66.1816952 21.5281832,66.1816952 L21.5281832,59.1599931 C19.0985025,59.1599931 16.7665243,59.2351489 14.4442091,59.1267098 C13.3673334,59.076248 12.046738,58.9839137 11.2876641,58.3622676 C9.15860672,56.6154313 7.3698979,54.7558613 7.47726337,51.4490046 C7.5953654,47.8146832 10.8925592,44.1374157 14.5945208,44.5217841 C15.2698496,44.5926453 15.959136,44.5389626 16.6409067,44.5303733 C19.2541824,44.4981637 21.8384694,41.7302817 21.6044127,39.449839 C21.4723531,38.1700426 21.8384694,37.0255266 22.2357217,35.8949681 C23.2943453,32.8790719 25.095938,30.6104394 28.4199731,29.809493 C30.108832,29.4036515 31.3306511,29.1631528 33.5767369,29.3145381 C36.033259,29.4809546 38.0646138,30.8402015 39.5237106,32.4700094 C41.1975384,34.340316 42.2883716,36.7549656 42.1466492,39.5443206 C42.013516,42.1694065 44.9220467,44.6452544 47.1949738,44.5432572 C48.5574417,44.4820589 49.9306462,44.4519965 51.2866721,44.562583 C52.0811766,44.6280759 52.9615735,44.829923 53.613282,45.2583113 C56.6871556,47.2821505 57.9401107,51.1558969 56.7376173,54.5722663 C55.9570703,56.7915107 53.1140325,59.1030894 50.907672,59.1428146 C47.3989682,59.2061602 43.8816753,59.2888316 40.3826344,59.0998684 C38.8677075,59.0182706 37.0951035,58.4524546 36.3446189,57.0631453 C35.6875421,55.8466945 34.9145107,54.5636771 35.0293918,52.9102487 C35.2376808,49.9383724 35.0884428,46.9407283 35.0884428,43.9548944 L27.4815988,43.9548944 C27.4815988,46.8516149 27.493409,49.5668878 27.4783779,52.2832343 C27.465494,54.6420538 28.1118342,56.7507118 29.1554266,58.9076842 C30.2763222,61.2267785 31.8513737,62.8630283 33.952516,64.1868446 C36.0364799,65.4999244 38.2396195,66.2482618 40.7326458,66.1956527 C43.5585052,66.1344544 46.3865118,66.1902844 49.2134448,66.1774006 C50.6188589,66.1709586 51.9770321,65.9411965 53.373857,65.6792248 C57.9379633,64.8245956 60.5963325,61.6820081 63.1548518,58.3010693 C63.0711067,56.7689639 64.3068834,55.5696916 64.3101043,54.1138157 C64.314399,51.7517752 64.5860336,49.3854402 63.7883081,47.0352099 C62.0339562,41.8698568 57.3313484,37.9681955 52.045746,37.5108185 M93.8648136,30.4980277 C92.8126319,30.5195008 92.2328584,30.2124356 91.7529347,29.1140868 C91.4297646,28.3754123 91.2644218,27.7237039 91.2633481,26.9785875 C91.2547589,22.3038946 91.1559826,17.6259809 91.3019997,12.9566563 C91.3782292,10.5151654 90.5021269,8.44623267 89.4896704,6.38481554 C87.7288766,2.7998823 84.2996233,1.4116467 80.8703701,0.0781674883 C80.2755653,-0.153741939 71.7915454,0.186606619 70.7801626,0.364833309 C70.7801626,2.50784821 70.7801626,4.64978945 70.7801626,7.08483844 C73.4095431,7.08483844 75.8338556,7.12778463 78.2549471,7.06873362 C79.6549929,7.03437667 80.7468998,7.50893207 81.8044497,8.41509668 C83.5942322,9.94827568 84.2770766,11.841129 84.2523825,14.1408975 C84.2029944,18.6201852 84.3329066,23.1037674 84.1954788,27.5787605 C84.1321332,29.6219255 84.5165016,31.4868638 85.5311054,33.1714281 C85.9616409,33.8854085 85.9326522,34.1398647 85.5182215,34.8452559 C84.5261645,36.5373358 84.1213967,38.4001268 84.1944052,40.4432918 C84.3404222,44.5285481 84.1890369,48.6234674 84.2663401,52.7130183 C84.2899605,53.9831519 83.9979264,55.2650957 83.3526599,56.1207985 C81.986971,57.9309805 80.3453529,59.5844088 77.6418902,59.1882302 C76.4984479,59.0196664 75.3088384,59.1517259 74.140702,59.1624625 C73.0144382,59.173199 71.8881743,59.204335 70.8886018,59.2236608 L70.8886018,66.1809436 C73.9087926,66.1809436 76.8205443,66.1873856 79.732296,66.176649 C80.3829308,66.1745017 80.9627044,65.9393713 81.5843505,65.7321559 C83.2581782,65.1717082 84.7033175,64.341773 86.2128761,63.4560079 C87.9586388,62.4317412 88.7842793,60.9844546 89.6850756,59.3385419 C91.1022999,56.7499602 91.2569062,56.7220452 91.2579798,54.4330133 C91.2612008,50.2457597 91.2590535,46.0585062 91.2590535,41.8701789 C91.2590535,41.2861108 91.2118127,40.6966743 91.2676427,40.1179744 C91.4458694,38.287393 92.3090878,37.5261718 94.1836891,37.5132879 C95.716868,37.5014777 97.2511207,37.5111406 98.8111411,37.5111406 L98.8111411,30.4894385 C97.1297977,30.4894385 95.4967688,30.4658181 93.8648136,30.4980277 M34.9981484,14.6914677 C35.0282108,14.1567876 35.061494,13.6092237 35.0883354,13.0616597 C35.2644148,9.43807494 37.589951,7.08999198 41.2081675,7.08569736 C43.8117803,7.0824764 46.4143195,7.08462371 48.9900172,7.08462371 L48.9900172,0.0639952455 C46.0288774,0.0639952455 43.20946,0.066142555 40.3911163,0.0629165462 C37.0874806,0.0597006264 34.4194485,1.59932155 31.9070964,3.53297377 C30.138787,4.89329435 29.1284779,6.79795789 28.4520754,8.81106056 C27.8229137,10.6813671 26.9747264,12.6203876 27.6833386,14.6914677 L34.9981484,14.6914677 Z M137.651013,25.0080673 L129.824926,25.0080673 L129.824926,51.906618 L122.984347,51.906618 L122.984347,25.0080673 L117.708984,25.0080673 L117.708984,21.8196615 L122.984347,19.7327049 L122.984347,17.6457484 C122.984347,13.8583088 123.873236,11.0515455 125.651013,9.22545856 C127.428791,7.3993716 130.143767,6.48632813 133.795941,6.48632813 C136.192076,6.48632813 138.549564,6.88246339 140.868405,7.67473392 L139.071303,12.8341542 C137.390144,12.2930914 135.786279,12.02256 134.259709,12.02256 C132.713815,12.02256 131.588211,12.5008209 130.882897,13.4573426 C130.177583,14.4138644 129.824926,15.848647 129.824926,17.7616904 L129.824926,19.848647 L137.651013,19.848647 L137.651013,25.0080673 Z M149.911883,51.906618 L143.100289,51.906618 L143.100289,19.848647 L149.911883,19.848647 L149.911883,51.906618 Z M142.694492,11.3558933 C142.694492,10.138502 143.027825,9.20130397 143.694492,8.54429914 C144.361158,7.88729431 145.312849,7.55879189 146.549564,7.55879189 C147.747632,7.55879189 148.679999,7.88729431 149.346666,8.54429914 C150.013332,9.20130397 150.346666,10.138502 150.346666,11.3558933 C150.346666,12.5153136 150.013332,13.4283571 149.346666,14.0950238 C148.679999,14.7616904 147.747632,15.0950238 146.549564,15.0950238 C145.312849,15.0950238 144.361158,14.7616904 143.694492,14.0950238 C143.027825,13.4283571 142.694492,12.5153136 142.694492,11.3558933 Z M168.391846,51.906618 L156.217933,19.848647 L163.406339,19.848647 L169.928078,38.4863281 C171.048851,41.6167629 171.72518,44.1481639 171.957064,46.080531 L172.188948,46.080531 C172.362861,44.6892267 173.039189,42.1578257 174.217933,38.4863281 L180.739672,19.848647 L187.986049,19.848647 L175.754165,51.906618 L168.391846,51.906618 Z M208.263114,52.4863281 C203.277607,52.4863281 199.379056,51.0322218 196.567462,48.1240093 C193.755868,45.2157967 192.350071,41.2109658 192.350071,36.1095165 C192.350071,30.8728016 193.654418,26.7568595 196.263114,23.7616904 C198.87181,20.7665214 202.456351,19.2689368 207.016737,19.2689368 C211.248621,19.2689368 214.591617,20.553961 217.045723,23.1240093 C219.499829,25.6940576 220.726882,29.2302895 220.726882,33.7327049 L220.726882,37.4138644 L199.364563,37.4138644 C199.461182,40.5249755 200.301761,42.9162798 201.886303,44.5877774 C203.470844,46.259275 205.702728,47.0950238 208.581955,47.0950238 C210.475675,47.0950238 212.23896,46.9162798 213.87181,46.5587919 C215.50466,46.201304 217.258283,45.6071011 219.132679,44.7761832 L219.132679,50.3124151 C217.470844,51.1046856 215.789684,51.6650721 214.089201,51.9935745 C212.388718,52.3220769 210.446689,52.4863281 208.263114,52.4863281 Z M207.016737,24.4283571 C204.852486,24.4283571 203.118187,25.1143474 201.813839,26.4863281 C200.509491,27.8583088 199.731713,29.8583088 199.480505,32.4863281 L214.03123,32.4863281 C213.992583,29.8389851 213.354902,27.8341542 212.118187,26.4718354 C210.881472,25.1095165 209.180989,24.4283571 207.016737,24.4283571 Z M251.409744,42.7761832 C251.409744,45.906618 250.269648,48.3075842 247.989454,49.9790817 C245.709261,51.6505793 242.443561,52.4863281 238.192353,52.4863281 C233.921822,52.4863281 230.49187,51.8389851 227.902498,50.5442991 L227.902498,44.6602412 C231.670614,46.3993716 235.17786,47.2689368 238.424237,47.2689368 C242.617474,47.2689368 244.714092,46.0032363 244.714092,43.4718354 C244.714092,42.6602412 244.482208,41.9839127 244.01844,41.4428499 C243.554672,40.9017871 242.791387,40.3414006 241.728585,39.7616904 C240.665783,39.1819803 239.187522,38.5249755 237.293802,37.790676 C233.602981,36.3607243 231.105396,34.9307726 229.801049,33.5008209 C228.496701,32.0708692 227.844527,30.2157967 227.844527,27.9356035 C227.844527,25.1916421 228.950807,23.0612074 231.163367,21.5442991 C233.375928,20.0273909 236.38559,19.2689368 240.192353,19.2689368 C243.960469,19.2689368 247.525686,20.0322218 250.888005,21.5587919 L248.685107,26.6892267 C245.226169,25.259275 242.317957,24.5442991 239.960469,24.5442991 C236.366266,24.5442991 234.569165,25.5684537 234.569165,27.6167629 C234.569165,28.6215938 235.037764,29.4718354 235.974962,30.1674875 C236.91216,30.8631397 238.955638,31.8196615 242.105396,33.0370528 C244.752739,34.0612074 246.675445,34.9984054 247.873512,35.848647 C249.07158,36.6988885 249.960469,37.6795648 250.540179,38.790676 C251.119889,39.9017871 251.409744,41.2302895 251.409744,42.7761832 Z M274.179563,52.4863281 C269.194055,52.4863281 265.295505,51.0322218 262.483911,48.1240093 C259.672316,45.2157967 258.266519,41.2109658 258.266519,36.1095165 C258.266519,30.8728016 259.570867,26.7568595 262.179563,23.7616904 C264.788258,20.7665214 268.372799,19.2689368 272.933186,19.2689368 C277.16507,19.2689368 280.508065,20.553961 282.962171,23.1240093 C285.416278,25.6940576 286.643331,29.2302895 286.643331,33.7327049 L286.643331,37.4138644 L265.281012,37.4138644 C265.37763,40.5249755 266.21821,42.9162798 267.802751,44.5877774 C269.387292,46.259275 271.619176,47.0950238 274.498403,47.0950238 C276.392123,47.0950238 278.155408,46.9162798 279.788258,46.5587919 C281.421109,46.201304 283.174732,45.6071011 285.049128,44.7761832 L285.049128,50.3124151 C283.387292,51.1046856 281.706133,51.6650721 280.00565,51.9935745 C278.305167,52.3220769 276.363138,52.4863281 274.179563,52.4863281 Z M272.933186,24.4283571 C270.768935,24.4283571 269.034635,25.1143474 267.730287,26.4863281 C266.42594,27.8583088 265.648162,29.8583088 265.396954,32.4863281 L279.947679,32.4863281 C279.909031,29.8389851 279.27135,27.8341542 278.034635,26.4718354 C276.79792,25.1095165 275.097437,24.4283571 272.933186,24.4283571 Z M308.717497,52.4863281 C303.867256,52.4863281 300.181265,51.0708692 297.659526,48.2399513 C295.137787,45.4090334 293.876917,41.3462315 293.876917,36.0515455 C293.876917,30.6602412 295.195758,26.5153136 297.833439,23.6167629 C300.47112,20.7182122 304.282715,19.2689368 309.268222,19.2689368 C312.649864,19.2689368 315.693343,19.8969561 318.398657,21.1529948 L316.340686,26.6312557 C313.461459,25.5104827 311.084647,24.9500962 309.210251,24.9500962 C303.664357,24.9500962 300.89141,28.6312557 300.89141,35.9935745 C300.89141,39.5877774 301.582231,42.2882605 302.963874,44.0950238 C304.345516,45.9017871 306.369671,46.8051687 309.036338,46.8051687 C312.070154,46.8051687 314.939719,46.0515455 317.645033,44.5442991 L317.645033,50.4863281 C316.427642,51.201304 315.128125,51.7133813 313.746483,52.02256 C312.36484,52.3317388 310.688512,52.4863281 308.717497,52.4863281 Z" id="fivesec" fill="#3DC6B5"></path>
    </g>
</svg>